# xmcd CD database file
#
# Track frame offsets:
#	183
#	9618
#	30538
#	48500
#	72243
#	90963
#	114158
#	133445
#	153455
#	177965
#	194975
#	219708
#	241083
#	265388
#	285115
#	310923
#
# Disc length: 4366 seconds
#
# Revision: 0
# Processed by: cddbd v1.4PL0 Copyright (c) Steve Scherf et al.
# Submitted via: CDex 1.50beta10
#
DISCID=e2110c10
DTITLE=Depeche Mode - I´ll Never Get Enough
DYEAR=1984
DGENRE=New Age
TTITLE0=Something To Do
TTITLE1=Two Minutes Warning
TTITLE2=Puppets
TTITLE3=If You Want
TTITLE4=People Are People
TTITLE5=Leave In Silence
TTITLE6=New Life
TTITLE7=Shame
TTITLE8=Somebody
TTITLE9=Ice Machine
TTITLE10=Blasphemous Rumours
TTITLE11=Told You So
TTITLE12=Master and Servant
TTITLE13=Photographic
TTITLE14=Everything Counts
TTITLE15=See You
EXTD=YEAR: 1984
EXTT0=
EXTT1=
EXTT2=
EXTT3=
EXTT4=
EXTT5=
EXTT6=
EXTT7=
EXTT8=
EXTT9=
EXTT10=
EXTT11=
EXTT12=
EXTT13=
EXTT14=
EXTT15=
PLAYORDER=
